<svg id="Layer_1" data-name="Layer 1" xmlns="http://www.w3.org/2000/svg" viewBox="0 0 495.27 58.34"><defs><style>.cls-1{fill:#f1f1f1;}</style></defs><title>logo</title><path class="cls-1" d="M146.08,7.34v-7h5.19v7h-5.19Zm0.23,49.6V16.22H151V56.94h-4.72Z"/><path class="cls-1" d="M52.33,22.37a36.83,36.83,0,0,0-1.48-6.59A29.64,29.64,0,0,0,48,9.57a17.14,17.14,0,0,0-4.63-5A19.76,19.76,0,0,0,39.28,2.3,21.07,21.07,0,0,0,35,1,33.86,33.86,0,0,0,30.52.44C29,0.36,27.46.33,25.89,0.33H9.71v56.6H25.89c1.88,0,3.73-.11,5.57-0.28a28.17,28.17,0,0,0,5.31-1,21.8,21.8,0,0,0,4.87-2.07A17.6,17.6,0,0,0,45.94,50a21.6,21.6,0,0,0,3.25-4.67A30.49,30.49,0,0,0,51.26,40a35.57,35.57,0,0,0,1.14-5.7,46.9,46.9,0,0,0,.37-5.74A49.43,49.43,0,0,0,52.33,22.37ZM47,34.59a29,29,0,0,1-1.48,6,21.57,21.57,0,0,1-2.88,5.31A12.84,12.84,0,0,1,38,49.77a19.57,19.57,0,0,1-6.49,2.16,51.2,51.2,0,0,1-6.79.44H11.9V4.88H24.71a61.84,61.84,0,0,1,7,.39,16.34,16.34,0,0,1,6,1.75,14.94,14.94,0,0,1,4.89,4,21,21,0,0,1,3,5.28,26.09,26.09,0,0,1,1.48,6,50.75,50.75,0,0,1,.39,6.24A45.08,45.08,0,0,1,47,34.59Z"/><path class="cls-1" d="M81.3,33.18q1.33-.16,3.18-0.47a11.93,11.93,0,0,0,3-.87A2.5,2.5,0,0,0,89,30a11.6,11.6,0,0,0,.28-2.4,8,8,0,0,0-2.32-5.94q-2.32-2.32-7.82-2.32a21.69,21.69,0,0,0-4.48.43A9.73,9.73,0,0,0,71,21.27a8.25,8.25,0,0,0-2.52,2.83,12,12,0,0,0-1.3,4.44h-4.8a14.59,14.59,0,0,1,1.65-6.17,12.54,12.54,0,0,1,3.66-4.17,15.16,15.16,0,0,1,5.19-2.36,25.29,25.29,0,0,1,6.25-.75,24.08,24.08,0,0,1,5.78.67,13.43,13.43,0,0,1,4.72,2.12,9.86,9.86,0,0,1,3.14,3.89,14.06,14.06,0,0,1,1.14,6V49.92q0,2.75,1,3.5t4-.35v3.69l-1.61.47a7.32,7.32,0,0,1-2.08.32,9.37,9.37,0,0,1-2.12-.24,3.65,3.65,0,0,1-1.89-.75,4.59,4.59,0,0,1-1.14-1.41,5.87,5.87,0,0,1-.59-1.81,13.23,13.23,0,0,1-.16-2.08,20.51,20.51,0,0,1-6.84,5A20.14,20.14,0,0,1,74.15,58,18.6,18.6,0,0,1,69,57.31a12.46,12.46,0,0,1-4.36-2.2,10.89,10.89,0,0,1-3-3.65,11.2,11.2,0,0,1-1.1-5.15q0-10.38,14.23-12.26Zm7.94,2.36a23.15,23.15,0,0,1-6.05,1.65q-3.06.39-6.13,0.63a17.28,17.28,0,0,0-8.45,2.44,7,7,0,0,0-3,6.21,6.73,6.73,0,0,0,.75,3.26,6.84,6.84,0,0,0,2,2.28,8.27,8.27,0,0,0,2.83,1.34,12.53,12.53,0,0,0,3.26.43,21.43,21.43,0,0,0,5.5-.71,14.91,14.91,0,0,0,4.76-2.16A11,11,0,0,0,88,47.21a10.67,10.67,0,0,0,1.26-5.31V35.54Z"/><path class="cls-1" d="M102,16.2h5.11l13.21,34.9,13.21-34.9h5.11L122.8,56.92h-5.27Z"/><path class="cls-1" d="M194.49,0.32h4.71v56.6h-4.71V49.77h-0.16a12.83,12.83,0,0,1-2.63,3.58,16,16,0,0,1-3.54,2.55,19,19,0,0,1-4,1.57,15.39,15.39,0,0,1-4,.55,19.41,19.41,0,0,1-8.41-1.65,15.64,15.64,0,0,1-5.7-4.52,18.42,18.42,0,0,1-3.26-6.8,33.38,33.38,0,0,1-1-8.41,30.19,30.19,0,0,1,1.1-8.18,20.28,20.28,0,0,1,3.34-6.88,16.53,16.53,0,0,1,5.66-4.72,17.31,17.31,0,0,1,8.06-1.77A18.78,18.78,0,0,1,188.24,17a14.62,14.62,0,0,1,6.25,5.7V0.32Zm0,36.08a22.46,22.46,0,0,0-.94-6.56,17,17,0,0,0-2.71-5.42,13.34,13.34,0,0,0-4.32-3.7,12,12,0,0,0-5.78-1.38,13.15,13.15,0,0,0-6.37,1.45,12.54,12.54,0,0,0-4.4,4,17.16,17.16,0,0,0-2.52,5.86,26.58,26.58,0,0,0-.63,7.19,20,20,0,0,0,1.06,6.8,14.54,14.54,0,0,0,2.95,5,12.6,12.6,0,0,0,4.4,3.1,14,14,0,0,0,5.5,1.06,12.68,12.68,0,0,0,5.9-1.33A12.42,12.42,0,0,0,191,48.79a16.82,16.82,0,0,0,2.63-5.5A25.13,25.13,0,0,0,194.49,36.4Z"/><path class="cls-1" d="M271.21,4.72c-3.34-2.93-7.8-4.37-13.41-4.37H243.06V56.93h2.18V36.58H257q9.2,0,14.19-4.15t5-14.17C276.19,12.15,274.53,7.65,271.21,4.72Zm-9,20.07a9,9,0,0,1-6.29,2H245.25V10.18H255.9a9.4,9.4,0,0,1,6.29,1.88c1.51,1.24,2.25,3.34,2.25,6.29S263.7,23.44,262.19,24.79Z"/><path class="cls-1" d="M316.53,51.8q-5.3,6.54-16.08,6.54T284.37,51.8a24.22,24.22,0,0,1-5.3-15.74,24.39,24.39,0,0,1,5.3-15.69q5.3-6.63,16.08-6.63t16.08,6.63a24.39,24.39,0,0,1,5.3,15.69A24.22,24.22,0,0,1,316.53,51.8Zm-8.75-6q2.57-3.41,2.57-9.7t-2.57-9.68a9.72,9.72,0,0,0-14.76,0q-2.59,3.39-2.59,9.68t2.59,9.7A9.69,9.69,0,0,0,307.78,45.76Z"/><path class="cls-1" d="M352.9,14.11l0.94,0.06V25.37q-1-.12-1.84-0.15l-1.3,0q-6.6,0-8.87,4.3-1.27,2.42-1.27,7.45v20h-11V15.08H340v7.29a23.13,23.13,0,0,1,4.41-5.72,12,12,0,0,1,8-2.57Z"/><path class="cls-1" d="M359.1,23.26V15.47h5.83V3.8h10.82V15.47h6.79v7.79h-6.79V45.37q0,2.57.65,3.2t4,0.63l1.06,0,1.09-.06V57.3l-5.18.19q-7.75.27-10.59-2.69-1.84-1.88-1.84-5.8V23.26H359.1Z"/><path class="cls-1" d="M400.82,10.09H389.72V0h11.09V10.09Zm-11.09,5h11.09V56.92H389.72V15.08Z"/><path class="cls-1" d="M422.58,56.92H411.64V0.35h10.94V56.92Z"/><path class="cls-1" d="M444.42,56.92H433.48V0.35h10.94V56.92Z"/><path class="cls-1" d="M490,51.8q-5.3,6.54-16.08,6.54T457.81,51.8a24.22,24.22,0,0,1-5.3-15.74,24.39,24.39,0,0,1,5.3-15.69q5.3-6.63,16.08-6.63T490,20.37a24.39,24.39,0,0,1,5.3,15.69A24.22,24.22,0,0,1,490,51.8Zm-8.75-6q2.57-3.41,2.57-9.7t-2.57-9.68a9.72,9.72,0,0,0-14.76,0q-2.59,3.39-2.59,9.68t2.59,9.7A9.69,9.69,0,0,0,481.23,45.76Z"/><circle class="cls-1" cx="22.76" cy="18.98" r="4.19"/><path class="cls-1" d="M27,38.24a4,4,0,0,1-1,2.72,4.1,4.1,0,0,1-6.34,0,3.93,3.93,0,0,1-1-2.72,1.57,1.57,0,0,1,.06-0.51,4.18,4.18,0,0,1,8.29,0A1.57,1.57,0,0,1,27,38.24Z"/><rect class="cls-1" y="0.32" width="5.35" height="56.6"/><rect class="cls-1" x="226.95" y="0.32" width="11.74" height="56.57"/></svg>